<svg width="300" height="300" viewBox="0 0 300 300" fill="none" xmlns="http://www.w3.org/2000/svg">
<path d="M221.1 221.1H197.4V244.8H221.1V221.1Z" fill="#111732"/>
<path d="M102.6 221.1H78.9V244.8H102.6V221.1Z" fill="#111732"/>
<path d="M78.9 197.4H55.2V221.1H78.9V197.4Z" fill="#111732"/>
<path d="M244.8 197.4H221.1V221.1H244.8V197.4Z" fill="#111732"/>
<path d="M221.1 126.3V102.6H197.4V78.9H173.7V55.2H150H126.3V78.9H102.6V102.6H78.9V126.3H55.2V150V173.7H78.9V197.4H102.6V173.7H126.3V197.4H150H173.7V173.7H197.4V197.4H221.1V173.7H244.8V150V126.3H221.1ZM102.6 150V126.3H126.3V150H102.6ZM173.7 150V126.3H197.4V150H173.7Z" fill="#111732"/>
</svg>
