<svg width="300" height="300" viewBox="0 0 300 300" fill="none" xmlns="http://www.w3.org/2000/svg">
<path d="M78.9 221.1H55.2V244.8H78.9V221.1Z" fill="#111732"/>
<path d="M244.8 221.1H221.1V244.8H244.8V221.1Z" fill="#111732"/>
<path d="M221.1 197.4H197.4V221.1H221.1V197.4Z" fill="#111732"/>
<path d="M102.6 197.4H78.9V221.1H102.6V197.4Z" fill="#111732"/>
<path d="M221.1 102.6V78.9H197.4H173.7V55.2H150H126.3V78.9H102.6H78.9V102.6H55.2V126.3V150V173.7H78.9H102.6V197.4H126.3V221.1H150H173.7V197.4H197.4V173.7H221.1H244.8V150V126.3V102.6H221.1ZM102.6 126.3H126.3V150H102.6V126.3ZM173.7 150V126.3H197.4V150H173.7Z" fill="#111732"/>
</svg>
