<svg width="300" height="300" viewBox="0 0 300 300" fill="none" xmlns="http://www.w3.org/2000/svg">
<path d="M161.7 221.1V244.8H185.4H209.1V221.1H185.4H161.7Z" fill="#111732"/>
<path d="M114.6 244.8H138.3V221.1H114.6H90.9V244.8H114.6Z" fill="#111732"/>
<path d="M256.5 150V126.3H232.8V102.6H209.1V78.9H185.4V102.6H161.7H138H114.3V78.9H90.6V102.6H66.9V126.3H43.2V150H19.8V173.7V197.4V221.1H43.5V197.4V173.7H67.2V197.4V221.1H90.9V197.4H114.6H138.3H162H185.7H209.4V221.1H233.1V197.4V173.7H256.8V197.4V221.1H280.5V197.4V173.7V150H256.5ZM209.1 126.3V150H185.4V126.3H209.1ZM114.6 126.3V150H90.9V126.3H114.6Z" fill="#111732"/>
<path d="M90.9 55.2H67.2V78.9H90.9V55.2Z" fill="#111732"/>
<path d="M232.8 55.2H209.1V78.9H232.8V55.2Z" fill="#111732"/>
</svg>
