<svg id="visual" viewBox="0 0 960 540" width="960" height="540" xmlns="http://www.w3.org/2000/svg" xmlns:xlink="http://www.w3.org/1999/xlink" version="1.1"><g stroke-width="1" stroke-linejoin="bevel"><path d="M465 286L513.6 221.5L446.4 273Z" fill="#6d3798" stroke="#6d3798"></path><path d="M465 286L539.6 318L513.6 221.5Z" fill="#53388d" stroke="#53388d"></path><path d="M591.1 191.5L512 148L513.6 221.5Z" fill="#8933a1" stroke="#8933a1"></path><path d="M513.6 221.5L433 151.5L446.4 273Z" fill="#0b1116" stroke="#0b1116"></path><path d="M512 148L433 151.5L513.6 221.5Z" fill="#8933a1" stroke="#8933a1"></path><path d="M403.4 169L394.9 180.5L446.4 273Z" fill="#082139" stroke="#082139"></path><path d="M433 151.5L403.4 169L446.4 273Z" fill="#132e5e" stroke="#132e5e"></path><path d="M433 151.5L413.4 154.5L403.4 169Z" fill="#082139" stroke="#082139"></path><path d="M403.4 169L305.9 120L394.9 180.5Z" fill="#25336f" stroke="#25336f"></path><path d="M455.4 383.5L499 365.5L465 286Z" fill="#a629a6" stroke="#a629a6"></path><path d="M465 286L499 365.5L539.6 318Z" fill="#53388d" stroke="#53388d"></path><path d="M590.1 305L591.1 191.5L513.6 221.5Z" fill="#132e5e" stroke="#132e5e"></path><path d="M592.6 329.5L590.1 305L539.6 318Z" fill="#132e5e" stroke="#132e5e"></path><path d="M539.6 318L590.1 305L513.6 221.5Z" fill="#a629a6" stroke="#a629a6"></path><path d="M309.9 250L385.9 349.5L446.4 273Z" fill="#8933a1" stroke="#8933a1"></path><path d="M446.4 273L385.9 349.5L465 286Z" fill="#6d3798" stroke="#6d3798"></path><path d="M385.9 349.5L455.4 383.5L465 286Z" fill="#25336f" stroke="#25336f"></path><path d="M572.6 364L592.6 329.5L539.6 318Z" fill="#0b1a27" stroke="#0b1a27"></path><path d="M590.1 305L641.7 295.5L591.1 191.5Z" fill="#53388d" stroke="#53388d"></path><path d="M572.6 364L539.6 318L499 365.5Z" fill="#8933a1" stroke="#8933a1"></path><path d="M571.1 379.5L572.6 364L499 365.5Z" fill="#6d3798" stroke="#6d3798"></path><path d="M385.9 349.5L400.4 375L455.4 383.5Z" fill="#25336f" stroke="#25336f"></path><path d="M459.4 82.5L435 92.5L433 151.5Z" fill="#0b1116" stroke="#0b1116"></path><path d="M433 151.5L435 92.5L413.4 154.5Z" fill="#a629a6" stroke="#a629a6"></path><path d="M413.4 154.5L305.9 120L403.4 169Z" fill="#6d3798" stroke="#6d3798"></path><path d="M459.4 82.5L433 151.5L512 148Z" fill="#8933a1" stroke="#8933a1"></path><path d="M614.1 141L593.6 132L591.1 191.5Z" fill="#6d3798" stroke="#6d3798"></path><path d="M591.1 191.5L593.6 132L512 148Z" fill="#3a367f" stroke="#3a367f"></path><path d="M572.6 364L594.1 410L592.6 329.5Z" fill="#132e5e" stroke="#132e5e"></path><path d="M594.1 410L571.1 379.5L565.1 464.5Z" fill="#082139" stroke="#082139"></path><path d="M513.6 48.5L459.4 82.5L512 148Z" fill="#25336f" stroke="#25336f"></path><path d="M273.3 163.5L309.9 250L394.9 180.5Z" fill="#3a367f" stroke="#3a367f"></path><path d="M394.9 180.5L309.9 250L446.4 273Z" fill="#25336f" stroke="#25336f"></path><path d="M385.9 349.5L328.9 403L400.4 375Z" fill="#25336f" stroke="#25336f"></path><path d="M722.3 380.5L641.7 295.5L592.6 329.5Z" fill="#6d3798" stroke="#6d3798"></path><path d="M592.6 329.5L641.7 295.5L590.1 305Z" fill="#a629a6" stroke="#a629a6"></path><path d="M673.7 167.5L614.1 141L591.1 191.5Z" fill="#082139" stroke="#082139"></path><path d="M309.9 250L290.3 307L385.9 349.5Z" fill="#53388d" stroke="#53388d"></path><path d="M689.7 115.5L614.1 98.5L614.1 141Z" fill="#09284b" stroke="#09284b"></path><path d="M614.1 141L614.1 98.5L593.6 132Z" fill="#8933a1" stroke="#8933a1"></path><path d="M593.6 132L513.6 48.5L512 148Z" fill="#53388d" stroke="#53388d"></path><path d="M510.6 455.5L571.1 379.5L499 365.5Z" fill="#0b1116" stroke="#0b1116"></path><path d="M571.1 379.5L594.1 410L572.6 364Z" fill="#09284b" stroke="#09284b"></path><path d="M510.6 455.5L499 365.5L455.4 383.5Z" fill="#53388d" stroke="#53388d"></path><path d="M614.1 98.5L513.6 48.5L593.6 132Z" fill="#8933a1" stroke="#8933a1"></path><path d="M384.4 0L347.9 70.5L435 92.5Z" fill="#09284b" stroke="#09284b"></path><path d="M290.3 307L320.3 370.5L385.9 349.5Z" fill="#25336f" stroke="#25336f"></path><path d="M400.4 375L462 454L455.4 383.5Z" fill="#09284b" stroke="#09284b"></path><path d="M393.9 467.5L462 454L400.4 375Z" fill="#0b1a27" stroke="#0b1a27"></path><path d="M641.7 295.5L673.7 167.5L591.1 191.5Z" fill="#082139" stroke="#082139"></path><path d="M462 454L510.6 455.5L455.4 383.5Z" fill="#53388d" stroke="#53388d"></path><path d="M347.9 70.5L413.4 154.5L435 92.5Z" fill="#09284b" stroke="#09284b"></path><path d="M347.9 70.5L305.9 120L413.4 154.5Z" fill="#0b1116" stroke="#0b1116"></path><path d="M309.9 250L219.7 290.5L290.3 307Z" fill="#132e5e" stroke="#132e5e"></path><path d="M298.3 395L328.9 403L320.3 370.5Z" fill="#a629a6" stroke="#a629a6"></path><path d="M320.3 370.5L328.9 403L385.9 349.5Z" fill="#a629a6" stroke="#a629a6"></path><path d="M455 0L435 92.5L459.4 82.5Z" fill="#6d3798" stroke="#6d3798"></path><path d="M305.9 120L273.3 163.5L394.9 180.5Z" fill="#0b1a27" stroke="#0b1a27"></path><path d="M722.3 380.5L710.3 265L641.7 295.5Z" fill="#53388d" stroke="#53388d"></path><path d="M641.7 295.5L710.3 265L673.7 167.5Z" fill="#082139" stroke="#082139"></path><path d="M290.3 307L298.3 395L320.3 370.5Z" fill="#3a367f" stroke="#3a367f"></path><path d="M328.9 403L393.9 467.5L400.4 375Z" fill="#8933a1" stroke="#8933a1"></path><path d="M192.7 314L298.3 395L290.3 307Z" fill="#09284b" stroke="#09284b"></path><path d="M495 489.5L565.1 464.5L510.6 455.5Z" fill="#3a367f" stroke="#3a367f"></path><path d="M510.6 455.5L565.1 464.5L571.1 379.5Z" fill="#6d3798" stroke="#6d3798"></path><path d="M778.9 294L723.7 255L710.3 265Z" fill="#6d3798" stroke="#6d3798"></path><path d="M387.4 510.5L393.9 467.5L313.3 540Z" fill="#082139" stroke="#082139"></path><path d="M462 454L495 489.5L510.6 455.5Z" fill="#6d3798" stroke="#6d3798"></path><path d="M426.4 540L495 489.5L462 454Z" fill="#53388d" stroke="#53388d"></path><path d="M722.3 380.5L592.6 329.5L594.1 410Z" fill="#09284b" stroke="#09284b"></path><path d="M710.3 265L723.7 255L673.7 167.5Z" fill="#a629a6" stroke="#a629a6"></path><path d="M551.6 0L455 0L513.6 48.5Z" fill="#0b1a27" stroke="#0b1a27"></path><path d="M513.6 48.5L455 0L459.4 82.5Z" fill="#09284b" stroke="#09284b"></path><path d="M673.7 167.5L689.7 115.5L614.1 141Z" fill="#53388d" stroke="#53388d"></path><path d="M573.1 0L551.6 0L513.6 48.5Z" fill="#8933a1" stroke="#8933a1"></path><path d="M727.7 91L689.7 115.5L771.9 129Z" fill="#a629a6" stroke="#a629a6"></path><path d="M305.9 120L236.3 170L273.3 163.5Z" fill="#09284b" stroke="#09284b"></path><path d="M273.3 163.5L236.3 170L309.9 250Z" fill="#3a367f" stroke="#3a367f"></path><path d="M200.7 182L236.3 170L159.1 95Z" fill="#3a367f" stroke="#3a367f"></path><path d="M573.1 0L513.6 48.5L614.1 98.5Z" fill="#082139" stroke="#082139"></path><path d="M236.3 170L219.7 290.5L309.9 250Z" fill="#132e5e" stroke="#132e5e"></path><path d="M650.7 0L573.1 0L614.1 98.5Z" fill="#25336f" stroke="#25336f"></path><path d="M455 0L384.4 0L435 92.5Z" fill="#0b1a27" stroke="#0b1a27"></path><path d="M241.3 39.5L236.3 170L305.9 120Z" fill="#0b1a27" stroke="#0b1a27"></path><path d="M719.7 431L722.3 380.5L594.1 410Z" fill="#53388d" stroke="#53388d"></path><path d="M313.3 540L393.9 467.5L328.9 403Z" fill="#0b1116" stroke="#0b1116"></path><path d="M393.9 467.5L426.4 540L462 454Z" fill="#0b1a27" stroke="#0b1a27"></path><path d="M241.3 39.5L305.9 120L347.9 70.5Z" fill="#0b1a27" stroke="#0b1a27"></path><path d="M236.3 170L200.7 182L219.7 290.5Z" fill="#8933a1" stroke="#8933a1"></path><path d="M771.9 129L689.7 115.5L673.7 167.5Z" fill="#a629a6" stroke="#a629a6"></path><path d="M689.7 115.5L650.7 0L614.1 98.5Z" fill="#a629a6" stroke="#a629a6"></path><path d="M778.3 235.5L673.7 167.5L723.7 255Z" fill="#3a367f" stroke="#3a367f"></path><path d="M111.6 239L192.7 314L219.7 290.5Z" fill="#132e5e" stroke="#132e5e"></path><path d="M219.7 290.5L192.7 314L290.3 307Z" fill="#3a367f" stroke="#3a367f"></path><path d="M298.3 395L253.3 437.5L328.9 403Z" fill="#09284b" stroke="#09284b"></path><path d="M495 489.5L519.6 540L565.1 464.5Z" fill="#132e5e" stroke="#132e5e"></path><path d="M565.1 464.5L674.7 475.5L594.1 410Z" fill="#082139" stroke="#082139"></path><path d="M426.4 540L510 540L495 489.5Z" fill="#0b1116" stroke="#0b1116"></path><path d="M192.7 314L253.3 437.5L298.3 395Z" fill="#a629a6" stroke="#a629a6"></path><path d="M510 540L519.6 540L495 489.5Z" fill="#0b1116" stroke="#0b1116"></path><path d="M394.9 540L426.4 540L387.4 510.5Z" fill="#a629a6" stroke="#a629a6"></path><path d="M387.4 510.5L426.4 540L393.9 467.5Z" fill="#6d3798" stroke="#6d3798"></path><path d="M778.9 294L778.3 235.5L723.7 255Z" fill="#a629a6" stroke="#a629a6"></path><path d="M727.7 91L650.7 0L689.7 115.5Z" fill="#132e5e" stroke="#132e5e"></path><path d="M598.1 540L674.7 475.5L565.1 464.5Z" fill="#0b1a27" stroke="#0b1a27"></path><path d="M674.7 475.5L719.7 431L594.1 410Z" fill="#09284b" stroke="#09284b"></path><path d="M722.3 380.5L778.9 294L710.3 265Z" fill="#25336f" stroke="#25336f"></path><path d="M782.3 355L778.9 294L722.3 380.5Z" fill="#0b1116" stroke="#0b1116"></path><path d="M313.3 540L394.9 540L387.4 510.5Z" fill="#25336f" stroke="#25336f"></path><path d="M778.9 294L785.9 231.5L778.3 235.5Z" fill="#09284b" stroke="#09284b"></path><path d="M778.3 235.5L771.9 129L673.7 167.5Z" fill="#0b1a27" stroke="#0b1a27"></path><path d="M384.4 0L289.9 0L347.9 70.5Z" fill="#8933a1" stroke="#8933a1"></path><path d="M289.9 0L241.3 39.5L347.9 70.5Z" fill="#132e5e" stroke="#132e5e"></path><path d="M785.9 231.5L771.9 129L778.3 235.5Z" fill="#082139" stroke="#082139"></path><path d="M727.7 91L737.3 0L650.7 0Z" fill="#8933a1" stroke="#8933a1"></path><path d="M519.6 540L598.1 540L565.1 464.5Z" fill="#0b1116" stroke="#0b1116"></path><path d="M197.7 439.5L237.7 452L253.3 437.5Z" fill="#132e5e" stroke="#132e5e"></path><path d="M253.3 437.5L313.3 540L328.9 403Z" fill="#0b1a27" stroke="#0b1a27"></path><path d="M719.7 431L782.3 355L722.3 380.5Z" fill="#3a367f" stroke="#3a367f"></path><path d="M778.9 294L856.4 212.5L785.9 231.5Z" fill="#25336f" stroke="#25336f"></path><path d="M137.1 171.5L158.7 186.5L159.1 95Z" fill="#6d3798" stroke="#6d3798"></path><path d="M200.7 182L158.7 186.5L219.7 290.5Z" fill="#0b1116" stroke="#0b1116"></path><path d="M237.7 452L313.3 540L253.3 437.5Z" fill="#25336f" stroke="#25336f"></path><path d="M289.9 0L247.3 0L241.3 39.5Z" fill="#25336f" stroke="#25336f"></path><path d="M159.1 95L158.7 186.5L200.7 182Z" fill="#082139" stroke="#082139"></path><path d="M192.7 314L197.7 439.5L253.3 437.5Z" fill="#0b1a27" stroke="#0b1a27"></path><path d="M237.7 452L232.7 540L313.3 540Z" fill="#09284b" stroke="#09284b"></path><path d="M137.1 358L197.7 439.5L192.7 314Z" fill="#3a367f" stroke="#3a367f"></path><path d="M159.1 95L236.3 170L241.3 39.5Z" fill="#25336f" stroke="#25336f"></path><path d="M84.1 304L137.1 358L192.7 314Z" fill="#6d3798" stroke="#6d3798"></path><path d="M826.9 433L811.9 365.5L782.3 355Z" fill="#53388d" stroke="#53388d"></path><path d="M782.3 355L811.9 365.5L778.9 294Z" fill="#8933a1" stroke="#8933a1"></path><path d="M848.4 111.5L801.3 91L771.9 129Z" fill="#53388d" stroke="#53388d"></path><path d="M826.9 433L782.3 355L719.7 431Z" fill="#8933a1" stroke="#8933a1"></path><path d="M777.3 482.5L719.7 431L674.7 475.5Z" fill="#0b1116" stroke="#0b1116"></path><path d="M158.7 36.5L159.1 95L241.3 39.5Z" fill="#09284b" stroke="#09284b"></path><path d="M776.3 29.5L737.3 0L727.7 91Z" fill="#09284b" stroke="#09284b"></path><path d="M856.4 212.5L771.9 129L785.9 231.5Z" fill="#0b1116" stroke="#0b1116"></path><path d="M771.9 129L801.3 91L727.7 91Z" fill="#3a367f" stroke="#3a367f"></path><path d="M111.6 239L219.7 290.5L158.7 186.5Z" fill="#082139" stroke="#082139"></path><path d="M598.1 540L686.7 540L674.7 475.5Z" fill="#25336f" stroke="#25336f"></path><path d="M54.6 191.5L111.6 239L137.1 171.5Z" fill="#0b1a27" stroke="#0b1a27"></path><path d="M137.1 171.5L111.6 239L158.7 186.5Z" fill="#a629a6" stroke="#a629a6"></path><path d="M801.3 91L776.3 29.5L727.7 91Z" fill="#8933a1" stroke="#8933a1"></path><path d="M686.7 540L702.3 540L674.7 475.5Z" fill="#25336f" stroke="#25336f"></path><path d="M844.4 352.5L856.4 212.5L778.9 294Z" fill="#25336f" stroke="#25336f"></path><path d="M801.3 91L828.9 0L776.3 29.5Z" fill="#25336f" stroke="#25336f"></path><path d="M826.9 433L844.4 352.5L811.9 365.5Z" fill="#082139" stroke="#082139"></path><path d="M811.9 365.5L844.4 352.5L778.9 294Z" fill="#3a367f" stroke="#3a367f"></path><path d="M702.3 540L777.3 482.5L674.7 475.5Z" fill="#25336f" stroke="#25336f"></path><path d="M168.7 0L158.7 36.5L241.3 39.5Z" fill="#a629a6" stroke="#a629a6"></path><path d="M159.1 95L114.1 102.5L137.1 171.5Z" fill="#132e5e" stroke="#132e5e"></path><path d="M138.1 540L232.7 540L197.7 439.5Z" fill="#0b1116" stroke="#0b1116"></path><path d="M197.7 439.5L232.7 540L237.7 452Z" fill="#6d3798" stroke="#6d3798"></path><path d="M107.6 369.5L117.1 373.5L137.1 358Z" fill="#09284b" stroke="#09284b"></path><path d="M137.1 358L117.1 373.5L197.7 439.5Z" fill="#0b1116" stroke="#0b1116"></path><path d="M84.1 304L107.6 369.5L137.1 358Z" fill="#25336f" stroke="#25336f"></path><path d="M117.1 373.5L118.1 499.5L197.7 439.5Z" fill="#0b1a27" stroke="#0b1a27"></path><path d="M158.7 36.5L114.1 102.5L159.1 95Z" fill="#09284b" stroke="#09284b"></path><path d="M111.6 239L84.1 304L192.7 314Z" fill="#082139" stroke="#082139"></path><path d="M871.4 139L848.4 111.5L771.9 129Z" fill="#6d3798" stroke="#6d3798"></path><path d="M777.3 482.5L826.9 433L719.7 431Z" fill="#6d3798" stroke="#6d3798"></path><path d="M247.3 0L168.7 0L241.3 39.5Z" fill="#132e5e" stroke="#132e5e"></path><path d="M57.6 109L87.6 116.5L114.1 102.5Z" fill="#53388d" stroke="#53388d"></path><path d="M0 235.5L84.1 304L111.6 239Z" fill="#3a367f" stroke="#3a367f"></path><path d="M867.9 540L804.9 480.5L777.3 482.5Z" fill="#082139" stroke="#082139"></path><path d="M777.3 482.5L804.9 480.5L826.9 433Z" fill="#0b1116" stroke="#0b1116"></path><path d="M916.4 220L871.4 139L856.4 212.5Z" fill="#3a367f" stroke="#3a367f"></path><path d="M856.4 212.5L871.4 139L771.9 129Z" fill="#09284b" stroke="#09284b"></path><path d="M97.1 0L114.1 102.5L158.7 36.5Z" fill="#a629a6" stroke="#a629a6"></path><path d="M114.1 102.5L87.6 116.5L137.1 171.5Z" fill="#6d3798" stroke="#6d3798"></path><path d="M826.9 433L888.4 367L844.4 352.5Z" fill="#0b1a27" stroke="#0b1a27"></path><path d="M844.4 352.5L916.4 220L856.4 212.5Z" fill="#3a367f" stroke="#3a367f"></path><path d="M868.4 456.5L888.4 367L826.9 433Z" fill="#8933a1" stroke="#8933a1"></path><path d="M872.9 44.5L828.9 0L801.3 91Z" fill="#0b1a27" stroke="#0b1a27"></path><path d="M776.3 29.5L828.9 0L737.3 0Z" fill="#53388d" stroke="#53388d"></path><path d="M872.9 44.5L801.3 91L848.4 111.5Z" fill="#082139" stroke="#082139"></path><path d="M87.6 116.5L54.6 191.5L137.1 171.5Z" fill="#0b1116" stroke="#0b1116"></path><path d="M168.7 0L120.6 0L158.7 36.5Z" fill="#082139" stroke="#082139"></path><path d="M87.6 116.5L57.6 109L54.6 191.5Z" fill="#0b1a27" stroke="#0b1a27"></path><path d="M960 308.5L916.4 220L844.4 352.5Z" fill="#25336f" stroke="#25336f"></path><path d="M871.4 139L872.9 44.5L848.4 111.5Z" fill="#a629a6" stroke="#a629a6"></path><path d="M107.6 369.5L118.1 499.5L117.1 373.5Z" fill="#53388d" stroke="#53388d"></path><path d="M114.6 507.5L118.1 499.5L58.6 540Z" fill="#6d3798" stroke="#6d3798"></path><path d="M118.1 499.5L107.6 369.5L17.6 393Z" fill="#0b1a27" stroke="#0b1a27"></path><path d="M960 103.5L872.9 44.5L871.4 139Z" fill="#6d3798" stroke="#6d3798"></path><path d="M867.9 540L868.4 456.5L804.9 480.5Z" fill="#6d3798" stroke="#6d3798"></path><path d="M804.9 480.5L868.4 456.5L826.9 433Z" fill="#53388d" stroke="#53388d"></path><path d="M97.1 0L57.6 109L114.1 102.5Z" fill="#0b1a27" stroke="#0b1a27"></path><path d="M17.6 393L107.6 369.5L84.1 304Z" fill="#0b1a27" stroke="#0b1a27"></path><path d="M118.1 499.5L138.1 540L197.7 439.5Z" fill="#a629a6" stroke="#a629a6"></path><path d="M114.6 507.5L138.1 540L118.1 499.5Z" fill="#53388d" stroke="#53388d"></path><path d="M120.6 0L97.1 0L158.7 36.5Z" fill="#132e5e" stroke="#132e5e"></path><path d="M0 153L0 235.5L54.6 191.5Z" fill="#6d3798" stroke="#6d3798"></path><path d="M54.6 191.5L0 235.5L111.6 239Z" fill="#a629a6" stroke="#a629a6"></path><path d="M0 153L54.6 191.5L57.6 109Z" fill="#0b1a27" stroke="#0b1a27"></path><path d="M960 308.5L960 220L916.4 220Z" fill="#0b1a27" stroke="#0b1a27"></path><path d="M916.4 220L960 176L871.4 139Z" fill="#3a367f" stroke="#3a367f"></path><path d="M960 308.5L844.4 352.5L888.4 367Z" fill="#132e5e" stroke="#132e5e"></path><path d="M960 220L960 202.5L916.4 220Z" fill="#0b1116" stroke="#0b1116"></path><path d="M0 320L17.6 393L84.1 304Z" fill="#53388d" stroke="#53388d"></path><path d="M114.6 507.5L58.6 540L138.1 540Z" fill="#082139" stroke="#082139"></path><path d="M0 235.5L0 320L84.1 304Z" fill="#082139" stroke="#082139"></path><path d="M960 430L960 308.5L888.4 367Z" fill="#0b1116" stroke="#0b1116"></path><path d="M960 202.5L960 176L916.4 220Z" fill="#09284b" stroke="#09284b"></path><path d="M702.3 540L867.9 540L777.3 482.5Z" fill="#53388d" stroke="#53388d"></path><path d="M868.4 456.5L960 430L888.4 367Z" fill="#25336f" stroke="#25336f"></path><path d="M0 106.5L0 153L57.6 109Z" fill="#3a367f" stroke="#3a367f"></path><path d="M960 103.5L907.4 0L872.9 44.5Z" fill="#0b1a27" stroke="#0b1a27"></path><path d="M872.9 44.5L907.4 0L828.9 0Z" fill="#0b1a27" stroke="#0b1a27"></path><path d="M0 320L0 380.5L17.6 393Z" fill="#132e5e" stroke="#132e5e"></path><path d="M17.6 393L0 420L118.1 499.5Z" fill="#25336f" stroke="#25336f"></path><path d="M867.9 540L881.4 540L868.4 456.5Z" fill="#0b1116" stroke="#0b1116"></path><path d="M0 0L0 106.5L57.6 109Z" fill="#25336f" stroke="#25336f"></path><path d="M960 176L960 103.5L871.4 139Z" fill="#3a367f" stroke="#3a367f"></path><path d="M0 380.5L0 420L17.6 393Z" fill="#0b1116" stroke="#0b1116"></path><path d="M0 420L58.6 540L118.1 499.5Z" fill="#09284b" stroke="#09284b"></path><path d="M960 448.5L960 430L868.4 456.5Z" fill="#53388d" stroke="#53388d"></path><path d="M881.4 540L960 448.5L868.4 456.5Z" fill="#a629a6" stroke="#a629a6"></path><path d="M97.1 0L0 0L57.6 109Z" fill="#6d3798" stroke="#6d3798"></path><path d="M960 103.5L960 0L907.4 0Z" fill="#53388d" stroke="#53388d"></path><path d="M0 420L0 522.5L58.6 540Z" fill="#a629a6" stroke="#a629a6"></path><path d="M0 522.5L0 540L58.6 540Z" fill="#6d3798" stroke="#6d3798"></path><path d="M881.4 540L960 540L960 448.5Z" fill="#132e5e" stroke="#132e5e"></path></g></svg>